<?xml version="1.0" standalone="no"?>
<!DOCTYPE svg PUBLIC "-//W3C//DTD SVG 20010904//EN"
 "http://www.w3.org/TR/2001/REC-SVG-20010904/DTD/svg10.dtd">
<svg version="1.0" xmlns="http://www.w3.org/2000/svg"
 width="128.000000pt" height="128.000000pt" viewBox="0 0 128.000000 128.000000"
 preserveAspectRatio="xMidYMid meet">
<metadata>
Created by potrace 1.14, written by Peter Selinger 2001-2017
</metadata>
<g transform="translate(0.000000,128.000000) scale(0.100000,-0.100000)"
fill="#000000" stroke="none">
<path d="M873 1154 c36 -11 55 -25 77 -56 17 -22 30 -36 30 -30 0 17 -50 72
-81 87 -15 8 -38 15 -51 14 -14 0 -5 -6 25 -15z"/>
<path d="M872 1110 c20 -11 48 -34 62 -52 28 -36 35 -31 10 7 -18 27 -74 65
-95 65 -8 -1 2 -10 23 -20z"/>
<path d="M510 1076 c14 -18 13 -19 -10 -13 -15 4 -38 0 -54 -8 -16 -8 -35 -15
-42 -15 -8 0 -13 -4 -12 -8 2 -4 -16 -27 -39 -50 -28 -29 -36 -41 -23 -37 11
4 20 2 20 -4 0 -6 -7 -11 -15 -11 -20 0 -35 -32 -35 -72 0 -19 -5 -39 -12 -46
-9 -9 -9 -12 1 -12 9 0 12 -12 9 -40 -2 -28 0 -39 8 -36 10 4 29 -45 25 -66 0
-5 3 -8 9 -8 5 0 10 -11 10 -24 0 -14 4 -27 9 -30 4 -3 6 6 3 19 -2 14 -1 33
3 42 6 15 11 11 26 -22 11 -22 17 -32 14 -21 -20 71 -26 109 -21 132 6 21 9
24 21 14 17 -14 20 1 4 17 -7 7 -8 24 -4 42 l6 30 24 -27 c27 -32 24 -43 -5
-17 -11 10 -20 13 -20 8 0 -27 27 -33 101 -22 41 6 87 11 102 10 15 0 25 4 22
9 -4 6 -29 10 -57 10 -43 0 -54 4 -79 31 -40 43 -48 30 -9 -15 18 -20 27 -36
22 -36 -30 0 -64 23 -76 51 -8 19 -16 27 -20 20 -4 -6 -16 -11 -26 -11 -11 0
-24 -9 -30 -19 -13 -25 -13 -94 0 -86 6 3 10 21 10 38 0 18 5 39 10 47 21 33
9 -48 -14 -93 -17 -35 -20 -47 -10 -47 15 0 18 -12 7 -23 -14 -15 -34 34 -27
66 6 28 5 30 -10 18 -14 -12 -16 -10 -17 15 -2 67 3 120 14 132 9 12 12 11 18
-5 4 -10 5 -29 2 -42 -4 -16 -2 -22 6 -17 6 4 11 27 11 51 0 33 6 50 22 65 12
11 17 20 12 20 -6 0 -15 -5 -22 -12 -8 -8 -12 -9 -12 -1 0 6 12 21 28 32 15
11 35 28 45 38 10 10 32 17 52 16 55 -2 62 -14 21 -35 -24 -12 -43 -32 -52
-53 -7 -18 -18 -36 -24 -40 -16 -10 -12 -25 5 -19 8 3 22 23 31 44 9 21 28 43
41 49 36 16 48 14 31 -6 -24 -28 -29 -56 -13 -77 8 -11 18 -17 21 -13 4 4 2
13 -5 20 -13 16 -6 43 17 70 10 11 11 17 4 17 -7 0 -12 9 -12 21 0 16 4 19 23
14 22 -7 22 -7 2 9 -11 8 -27 16 -35 16 -9 0 -22 6 -30 13 -11 9 -11 8 0 -7z"/>
<path d="M824 1056 c-4 -12 -10 -14 -19 -6 -16 13 -25 2 -25 -32 0 -15 -4 -28
-10 -28 -5 0 -10 -9 -10 -21 0 -21 0 -21 -19 2 -14 17 -16 26 -8 31 8 5 6 8
-5 8 -10 0 -18 4 -18 10 0 12 -53 40 -77 40 -10 0 -26 -8 -34 -18 -15 -18 -14
-20 17 -31 26 -10 35 -19 40 -46 3 -19 12 -39 20 -46 16 -13 18 -5 4 21 -5 10
-11 31 -12 48 -1 17 -5 30 -8 30 -17 -1 -49 16 -44 23 16 26 99 -18 87 -46 -3
-10 1 -15 11 -15 10 0 23 -15 32 -35 20 -48 17 -65 -6 -35 -12 15 -20 20 -20
11 0 -8 7 -22 16 -32 9 -10 17 -40 19 -69 2 -35 9 -57 21 -68 17 -16 17 -16 5
0 -14 19 -17 97 -5 136 7 23 21 26 73 16 25 -5 31 -11 31 -32 0 -24 -2 -24
-52 -19 -35 4 -46 3 -33 -3 11 -5 34 -9 52 -9 28 -1 33 -6 41 -34 11 -40 -14
-171 -59 -312 -15 -49 -26 -91 -24 -93 13 -14 104 336 97 378 -20 133 -20 145
-1 178 23 40 23 42 3 42 -8 0 -13 -4 -9 -9 8 -14 -26 -81 -41 -81 -7 0 -22 12
-34 28 -16 21 -19 22 -10 5 9 -19 8 -23 -4 -23 -9 0 -20 9 -26 19 -13 25 -13
34 0 26 6 -4 10 11 11 37 1 24 3 34 6 23 8 -32 23 -42 23 -14 0 13 5 31 10 39
7 11 10 5 10 -22 0 -21 5 -38 11 -38 7 0 8 12 4 33 -9 41 -22 56 -31 33z m-50
-121 c3 -8 1 -15 -4 -15 -6 0 -10 7 -10 15 0 8 2 15 4 15 2 0 6 -7 10 -15z"/>
<path d="M488 1033 c7 -3 16 -2 19 1 4 3 -2 6 -13 5 -11 0 -14 -3 -6 -6z"/>
<path d="M864 1028 c-4 -7 -3 -8 4 -4 8 5 10 -3 5 -26 -3 -18 -2 -30 2 -26 12
11 16 68 6 68 -6 0 -13 -5 -17 -12z"/>
<path d="M415 973 c-16 -16 -35 -55 -35 -74 0 -21 18 -7 25 19 3 15 16 37 27
50 24 25 8 31 -17 5z"/>
<path d="M580 962 c0 -4 12 -13 28 -19 15 -7 35 -27 44 -44 10 -16 22 -28 28
-24 10 6 4 16 -42 66 -24 27 -58 39 -58 21z"/>
<path d="M520 881 c0 -5 12 -19 27 -31 20 -16 37 -20 59 -17 26 4 34 1 44 -18
7 -13 24 -26 37 -30 24 -6 25 -8 21 -78 -4 -84 -25 -119 -86 -148 -21 -10 -30
-18 -19 -18 9 -1 17 -6 17 -12 0 -6 7 -9 15 -5 22 8 18 -2 -6 -15 -12 -6 -19
-7 -16 -2 3 5 -7 7 -24 5 -22 -3 -29 0 -29 12 0 9 5 16 12 16 6 0 9 3 5 6 -3
3 -14 1 -24 -5 -10 -6 -14 -11 -9 -11 6 0 1 -7 -10 -15 -16 -13 -17 -16 -4
-25 27 -17 77 -11 106 13 16 14 24 29 20 36 -4 6 -12 9 -17 6 -5 -4 -9 -2 -9
2 0 5 10 13 22 18 35 16 60 60 66 115 3 32 10 54 19 57 12 5 12 7 1 14 -10 7
-10 9 0 9 6 0 12 5 12 10 0 6 -7 10 -15 10 -9 0 -27 12 -40 26 -14 15 -25 23
-25 18 0 -5 -7 2 -16 14 -24 35 -94 66 -94 42 0 -5 6 -10 13 -10 7 0 22 -7 33
-15 17 -13 16 -14 -16 -5 -19 6 -40 17 -46 25 -13 17 -24 20 -24 6z m79 -387
c2 -2 -10 -4 -27 -4 -17 0 -34 4 -37 10 -5 9 53 3 64 -6z"/>
<path d="M705 863 c4 -10 10 -26 12 -35 8 -29 22 -21 20 11 -1 16 -5 27 -9 24
-5 -2 -8 1 -8 6 0 6 -5 11 -11 11 -7 0 -8 -7 -4 -17z"/>
<path d="M590 740 c0 -5 5 -10 10 -10 6 0 10 5 10 10 0 6 -4 10 -10 10 -5 0
-10 -4 -10 -10z"/>
<path d="M761 711 c0 -19 -8 -43 -18 -53 -9 -10 -12 -18 -6 -18 17 0 35 45 30
76 -4 28 -4 27 -6 -5z"/>
<path d="M480 720 c0 -5 5 -10 10 -10 6 0 10 5 10 10 0 6 -4 10 -10 10 -5 0
-10 -4 -10 -10z"/>
<path d="M785 685 c4 -11 10 -28 12 -37 3 -10 9 -18 14 -18 5 0 2 15 -7 33
-19 38 -30 50 -19 22z"/>
<path d="M560 630 l-35 -7 32 -2 c17 0 35 4 38 9 3 6 5 9 3 9 -2 -1 -19 -5
-38 -9z"/>
<path d="M405 580 c-18 -8 -18 -9 5 -10 14 0 34 -7 44 -15 11 -8 34 -14 50
-14 29 1 29 2 -6 9 -21 4 -46 14 -55 22 -12 11 -25 13 -38 8z"/>
<path d="M690 574 c0 -6 7 -19 16 -30 14 -18 14 -18 3 6 -14 31 -19 36 -19 24z"/>
<path d="M930 570 c-21 -7 -21 -8 -5 -9 11 0 27 4 35 9 18 11 5 11 -30 0z"/>
<path d="M278 563 c6 -2 18 -2 25 0 6 3 1 5 -13 5 -14 0 -19 -2 -12 -5z"/>
<path d="M920 530 c8 -5 22 -9 30 -9 10 0 8 3 -5 9 -27 12 -43 12 -25 0z"/>
<path d="M283 523 c9 -2 23 -2 30 0 6 3 -1 5 -18 5 -16 0 -22 -2 -12 -5z"/>
<path d="M482 509 c-33 -22 -89 -105 -78 -116 3 -4 6 0 6 8 1 8 7 3 15 -11 17
-29 20 -9 4 22 -9 17 -4 26 40 69 28 27 50 49 48 49 -1 0 -17 -10 -35 -21z"/>
<path d="M720 516 c0 -13 62 -98 67 -92 3 2 -8 22 -23 43 -37 51 -44 58 -44
49z"/>
<path d="M900 501 c0 -8 41 -23 47 -17 2 1 -8 8 -22 14 -14 6 -25 8 -25 3z"/>
<path d="M290 490 c-8 -5 -10 -10 -5 -10 6 0 17 5 25 10 8 5 11 10 5 10 -5 0
-17 -5 -25 -10z"/>
<path d="M305 460 c-3 -5 -2 -10 4 -10 5 0 13 5 16 10 3 6 2 10 -4 10 -5 0
-13 -4 -16 -10z"/>
<path d="M902 454 c10 -10 20 -16 22 -13 3 3 -5 11 -17 18 -21 13 -21 12 -5
-5z"/>
<path d="M794 255 c0 -77 2 -107 3 -67 2 40 2 103 0 140 -2 37 -3 4 -3 -73z"/>
<path d="M390 358 c0 -3 -11 -56 -25 -118 -14 -62 -23 -116 -20 -118 3 -3 5
-3 5 0 0 3 11 56 25 118 14 62 23 116 20 118 -3 3 -5 3 -5 0z"/>
<path d="M433 305 c0 -33 2 -45 4 -27 2 18 2 45 0 60 -2 15 -4 0 -4 -33z"/>
<path d="M557 244 c22 -27 51 -58 64 -69 13 -11 -1 9 -30 45 -29 36 -58 67
-64 69 -7 2 7 -18 30 -45z"/>
<path d="M433 180 c0 -36 2 -50 4 -32 2 17 2 47 0 65 -2 17 -4 3 -4 -33z"/>
</g>
</svg>
