<svg xmlns="http://www.w3.org/2000/svg" xmlns:xlink="http://www.w3.org/1999/xlink" width="500" zoomAndPan="magnify" viewBox="0 0 375 374.999991" height="500" preserveAspectRatio="xMidYMid meet" version="1.2"><defs><clipPath id="272ca7daa1"><path d="M 0 167.816406 L 375 167.816406 L 375 207.769531 L 0 207.769531 Z M 0 167.816406 "/></clipPath><clipPath id="ff6a9102a1"><path d="M 176.46875 167.816406 L 216 167.816406 L 216 207.566406 L 176.46875 207.566406 Z M 176.46875 167.816406 "/></clipPath><clipPath id="e570c285a3"><path d="M 208 187 L 228.96875 187 L 228.96875 207.566406 L 208 207.566406 Z M 208 187 "/></clipPath></defs><g id="ba95a0894f"><rect x="0" width="375" y="0" height="374.999991" style="fill:#ffffff;fill-opacity:1;stroke:none;"/><rect x="0" width="375" y="0" height="374.999991" style="fill:#000000;fill-opacity:1;stroke:none;"/><g style="fill:#ffffff;fill-opacity:1;"><g transform="translate(0.0000045, 264.584859)"><path style="stroke:none" d="M 87.511719 -158.859375 L 7.390625 -158.859375 L 7.390625 -157.246094 L 11.082031 -157.246094 C 27.015625 -157.246094 32.328125 -152.625 32.328125 -130.921875 L 32.328125 -27.9375 C 32.328125 -6.234375 27.015625 -1.617188 11.082031 -1.617188 L 7.390625 -1.617188 L 7.390625 0 L 87.972656 0 C 157.011719 0 192.109375 -21.472656 192.109375 -80.121094 C 192.109375 -138.773438 151.011719 -158.859375 87.511719 -158.859375 Z M 87.972656 -1.617188 L 82.894531 -1.617188 L 82.894531 -157.246094 L 87.511719 -157.246094 C 129.765625 -157.246094 139.464844 -133.460938 139.464844 -79.429688 C 139.464844 -21.703125 131.84375 -1.617188 87.972656 -1.617188 Z M 87.972656 -1.617188 "/></g></g><g style="fill:#ffffff;fill-opacity:1;"><g transform="translate(202.50017, 264.584859)"><path style="stroke:none" d="M 164.632812 -86.820312 L 166.019531 -86.820312 L 163.710938 -158.859375 L 8.773438 -158.859375 L 6.464844 -86.820312 L 7.851562 -86.820312 C 14.085938 -115.914062 30.710938 -149.625 61.1875 -156.089844 L 61.1875 -27.9375 C 61.1875 -6.234375 55.878906 -1.617188 43.179688 -1.617188 L 34.867188 -1.617188 L 34.867188 0 L 138.773438 0 L 138.773438 -1.617188 L 130.460938 -1.617188 C 116.835938 -1.617188 111.527344 -6.234375 111.527344 -27.9375 L 111.527344 -156.089844 C 141.773438 -149.394531 158.398438 -115.683594 164.632812 -86.820312 Z M 164.632812 -86.820312 "/></g></g><g clip-rule="nonzero" clip-path="url(#272ca7daa1)"><path style=" stroke:none;fill-rule:nonzero;fill:#000000;fill-opacity:1;" d="M 0 167.816406 L 374.996094 167.816406 L 374.996094 207.769531 L 0 207.769531 Z M 0 167.816406 "/></g><g clip-rule="nonzero" clip-path="url(#ff6a9102a1)"><path style=" stroke:none;fill-rule:nonzero;fill:#ffffff;fill-opacity:1;" d="M 196.664062 178.40625 C 196.722656 178.957031 196.832031 179.5 196.980469 180.035156 C 197.132812 180.566406 197.332031 181.082031 197.570312 181.582031 C 197.808594 182.082031 198.089844 182.558594 198.410156 183.011719 C 198.730469 183.464844 199.085938 183.886719 199.476562 184.277344 C 199.871094 184.667969 200.292969 185.023438 200.746094 185.34375 C 201.195312 185.664062 201.671875 185.945312 202.171875 186.1875 C 202.671875 186.425781 203.1875 186.621094 203.722656 186.773438 C 204.253906 186.925781 204.796875 187.03125 205.347656 187.089844 C 208.855469 187.441406 212.371094 187.601562 215.894531 187.570312 C 212.371094 187.542969 208.855469 187.703125 205.347656 188.054688 C 204.796875 188.113281 204.253906 188.21875 203.722656 188.371094 C 203.1875 188.523438 202.671875 188.71875 202.171875 188.960938 C 201.671875 189.199219 201.195312 189.480469 200.746094 189.800781 C 200.292969 190.121094 199.871094 190.476562 199.476562 190.867188 C 199.085938 191.257812 198.730469 191.679688 198.410156 192.132812 C 198.089844 192.585938 197.808594 193.0625 197.570312 193.5625 C 197.332031 194.0625 197.132812 194.578125 196.984375 195.109375 C 196.832031 195.644531 196.722656 196.1875 196.664062 196.738281 C 196.316406 200.246094 196.15625 203.761719 196.183594 207.285156 C 196.210938 203.761719 196.050781 200.246094 195.703125 196.738281 C 195.640625 196.1875 195.535156 195.644531 195.382812 195.109375 C 195.230469 194.578125 195.035156 194.0625 194.796875 193.5625 C 194.558594 193.0625 194.277344 192.585938 193.957031 192.132812 C 193.636719 191.679688 193.28125 191.257812 192.886719 190.867188 C 192.496094 190.476562 192.074219 190.117188 191.621094 189.796875 C 191.167969 189.476562 190.695312 189.199219 190.195312 188.957031 C 189.695312 188.71875 189.179688 188.523438 188.644531 188.371094 C 188.113281 188.21875 187.570312 188.113281 187.019531 188.054688 C 183.511719 187.703125 179.996094 187.542969 176.46875 187.570312 C 179.996094 187.601562 183.511719 187.441406 187.019531 187.089844 C 187.570312 187.03125 188.113281 186.925781 188.644531 186.773438 C 189.179688 186.621094 189.695312 186.425781 190.195312 186.183594 C 190.695312 185.945312 191.167969 185.664062 191.621094 185.34375 C 192.074219 185.023438 192.496094 184.667969 192.886719 184.277344 C 193.28125 183.886719 193.636719 183.464844 193.957031 183.011719 C 194.277344 182.558594 194.558594 182.082031 194.796875 181.582031 C 195.035156 181.082031 195.230469 180.566406 195.382812 180.035156 C 195.535156 179.5 195.640625 178.957031 195.703125 178.40625 C 196.050781 174.898438 196.210938 171.382812 196.183594 167.859375 C 196.15625 171.382812 196.316406 174.898438 196.664062 178.40625 Z M 196.664062 178.40625 "/></g><g clip-rule="nonzero" clip-path="url(#e570c285a3)"><path style=" stroke:none;fill-rule:nonzero;fill:#ffffff;fill-opacity:1;" d="M 218.671875 192.910156 C 218.734375 193.472656 218.886719 194.007812 219.128906 194.515625 C 219.375 195.027344 219.695312 195.480469 220.097656 195.878906 C 220.496094 196.28125 220.949219 196.601562 221.460938 196.847656 C 221.96875 197.089844 222.503906 197.242188 223.066406 197.304688 C 224.839844 197.480469 226.621094 197.5625 228.40625 197.546875 C 226.621094 197.53125 224.839844 197.613281 223.066406 197.789062 C 222.503906 197.851562 221.96875 198.003906 221.460938 198.25 C 220.949219 198.492188 220.496094 198.816406 220.097656 199.214844 C 219.695312 199.613281 219.375 200.070312 219.128906 200.578125 C 218.886719 201.089844 218.734375 201.625 218.671875 202.183594 C 218.496094 203.960938 218.414062 205.738281 218.429688 207.523438 C 218.445312 205.738281 218.363281 203.960938 218.1875 202.183594 C 218.125 201.625 217.972656 201.089844 217.726562 200.578125 C 217.484375 200.070312 217.160156 199.613281 216.761719 199.214844 C 216.363281 198.816406 215.90625 198.492188 215.398438 198.25 C 214.886719 198.003906 214.351562 197.851562 213.792969 197.789062 C 212.015625 197.613281 210.238281 197.53125 208.453125 197.546875 C 210.238281 197.5625 212.015625 197.480469 213.792969 197.304688 C 214.351562 197.242188 214.886719 197.089844 215.398438 196.847656 C 215.90625 196.601562 216.363281 196.28125 216.761719 195.878906 C 217.160156 195.480469 217.484375 195.027344 217.726562 194.515625 C 217.972656 194.007812 218.125 193.472656 218.1875 192.910156 C 218.363281 191.136719 218.445312 189.355469 218.429688 187.570312 C 218.414062 189.355469 218.496094 191.136719 218.671875 192.910156 Z M 218.671875 192.910156 "/></g><path style=" stroke:none;fill-rule:nonzero;fill:#ffffff;fill-opacity:1;" d="M 211.175781 173.222656 C 211.210938 173.566406 211.304688 173.894531 211.453125 174.207031 C 211.601562 174.515625 211.800781 174.792969 212.042969 175.039062 C 212.289062 175.28125 212.566406 175.480469 212.875 175.628906 C 213.1875 175.777344 213.515625 175.871094 213.855469 175.90625 C 214.941406 176.015625 216.027344 176.066406 217.117188 176.054688 C 216.027344 176.046875 214.941406 176.097656 213.855469 176.203125 C 213.515625 176.242188 213.1875 176.335938 212.875 176.484375 C 212.566406 176.632812 212.289062 176.832031 212.042969 177.074219 C 211.800781 177.316406 211.601562 177.59375 211.453125 177.90625 C 211.304688 178.21875 211.210938 178.542969 211.175781 178.886719 C 211.066406 179.972656 211.015625 181.058594 211.023438 182.148438 C 211.035156 181.058594 210.984375 179.972656 210.875 178.886719 C 210.839844 178.542969 210.746094 178.21875 210.597656 177.90625 C 210.449219 177.59375 210.25 177.316406 210.007812 177.074219 C 209.761719 176.832031 209.484375 176.632812 209.175781 176.484375 C 208.863281 176.335938 208.535156 176.242188 208.195312 176.203125 C 207.109375 176.097656 206.023438 176.046875 204.933594 176.054688 C 206.023438 176.066406 207.109375 176.015625 208.195312 175.90625 C 208.535156 175.871094 208.863281 175.777344 209.175781 175.628906 C 209.484375 175.476562 209.761719 175.28125 210.007812 175.039062 C 210.25 174.792969 210.445312 174.515625 210.597656 174.207031 C 210.746094 173.894531 210.839844 173.566406 210.875 173.222656 C 210.984375 172.140625 211.035156 171.054688 211.023438 169.964844 C 211.015625 171.054688 211.066406 172.140625 211.175781 173.222656 Z M 211.175781 173.222656 "/></g></svg>